<?xml version="1.0" encoding="UTF-8" standalone="no"?>
<!-- Created with Inkscape (http://www.inkscape.org/) -->

<svg
   xmlns:dc="http://purl.org/dc/elements/1.1/"
   xmlns:cc="http://creativecommons.org/ns#"
   xmlns:rdf="http://www.w3.org/1999/02/22-rdf-syntax-ns#"
   xmlns:svg="http://www.w3.org/2000/svg"
   xmlns="http://www.w3.org/2000/svg"
   xmlns:sodipodi="http://sodipodi.sourceforge.net/DTD/sodipodi-0.dtd"
   xmlns:inkscape="http://www.inkscape.org/namespaces/inkscape"
   width="38.308632mm"
   height="20.354763mm"
   viewBox="0 0 38.308632 20.354763"
   version="1.1"
   id="svg8"
   inkscape:version="0.92.1 r"
   sodipodi:docname="joker_tel.svg">
  <defs
     id="defs2" />
  <sodipodi:namedview
     id="base"
     pagecolor="#ffffff"
     bordercolor="#666666"
     borderopacity="1.0"
     inkscape:pageopacity="0.0"
     inkscape:pageshadow="2"
     inkscape:zoom="9.75625"
     inkscape:cx="-39.759383"
     inkscape:cy="72.213989"
     inkscape:document-units="mm"
     inkscape:current-layer="layer1"
     showgrid="false"
     inkscape:window-width="1920"
     inkscape:window-height="1053"
     inkscape:window-x="0"
     inkscape:window-y="0"
     inkscape:window-maximized="1"
     fit-margin-top="0"
     fit-margin-left="0"
     fit-margin-right="0"
     fit-margin-bottom="0" />
  <metadata
     id="metadata5">
    <rdf:RDF>
      <cc:Work
         rdf:about="">
        <dc:format>image/svg+xml</dc:format>
        <dc:type
           rdf:resource="http://purl.org/dc/dcmitype/StillImage" />
        <dc:title></dc:title>
      </cc:Work>
    </rdf:RDF>
  </metadata>
  <g
     inkscape:label="Layer 1"
     inkscape:groupmode="layer"
     id="layer1"
     transform="translate(-66.797444,-116.26087)">
    <ellipse
       style="fill:none;fill-opacity:0.0482456;stroke:#ffffff;stroke-width:0.69999999;stroke-linejoin:round;stroke-miterlimit:4;stroke-dasharray:none;stroke-opacity:1"
       id="path4485"
       cx="85.951759"
       cy="126.43825"
       rx="18.804316"
       ry="9.8273811" />
    <flowRoot
       xml:space="preserve"
       id="flowRoot4489"
       style="font-style:normal;font-weight:normal;font-size:40px;line-height:25px;font-family:sans-serif;letter-spacing:0px;word-spacing:0px;fill:#000000;fill-opacity:1;stroke:none"
       transform="matrix(0.26458333,0,0,0.26458333,39.838677,51.404762)"><flowRegion
         id="flowRegion4491"><rect
           id="rect4493"
           width="86.428574"
           height="48.92857"
           x="121.78571"
           y="266.44824" /></flowRegion><flowPara
         id="flowPara4495" /></flowRoot>    <g
       id="g3015"
       transform="matrix(-0.00989758,0,0,-0.00989758,92.328496,132.809)"
       style="fill:#ffffff;fill-opacity:1;stroke:none;stroke-opacity:1">
      <path
         style="fill:#ffffff;fill-opacity:1;stroke:none;stroke-opacity:1"
         inkscape:connector-curvature="0"
         id="path3017"
         d="m 1408,296 q 0,-27 -10,-70.5 Q 1388,182 1377,157 1356,107 1255,51 1161,0 1069,0 1042,0 1016.5,3.5 991,7 959,16 927,25 911.5,30.5 896,36 856,51 816,66 807,69 709,104 632,152 504,231 367.5,367.5 231,504 152,632 104,709 69,807 66,816 51,856 36,896 30.5,911.5 25,927 16,959 7,991 3.5,1016.5 0,1042 0,1069 q 0,92 51,186 56,101 106,122 25,11 68.5,21 43.5,10 70.5,10 14,0 21,-3 18,-6 53,-76 11,-19 30,-54 19,-35 35,-63.5 16,-28.5 31,-53.5 3,-4 17.5,-25 14.5,-21 21.5,-35.5 7,-14.5 7,-28.5 0,-20 -28.5,-50 -28.5,-30 -62,-55 -33.5,-25 -62,-53 -28.5,-28 -28.5,-46 0,-9 5,-22.5 5,-13.5 8.5,-20.5 3.5,-7 14,-24 10.5,-17 11.5,-19 76,-137 174,-235 98,-98 235,-174 2,-1 19,-11.5 17,-10.5 24,-14 7,-3.5 20.5,-8.5 13.5,-5 22.5,-5 18,0 46,28.5 28,28.5 53,62 25,33.5 55,62 30,28.5 50,28.5 14,0 28.5,-7 14.5,-7 35.5,-21.5 21,-14.5 25,-17.5 25,-15 53.5,-31 28.5,-16 63.5,-35 35,-19 54,-30 70,-35 76,-53 3,-7 3,-21 z" />
    </g>
    <path
       style="fill:none;fill-opacity:1;stroke:#ffffff;stroke-width:0.66500002;stroke-linecap:butt;stroke-linejoin:miter;stroke-miterlimit:4;stroke-dasharray:none;stroke-opacity:1"
       d="m 66.99628,126.91071 3.779762,-2.55134 -0.566965,4.15774 3.02381,-3.30729 -0.283482,4.7247 2.834821,-4.15774 -0.09449,4.53572 5.537793,-0.1497"
       id="path4610"
       inkscape:connector-curvature="0"
       sodipodi:nodetypes="cccccccc" />
  </g>
</svg>
